# xmcd
#
# Track frame offsets: 
#        150
#        11489
#        23531
#        35505
#        49194
#        63268
#        76481
#        90919
#        106445
#        121882
#        133349
#        143864
#        155775
#        169780
#        184153
#        197800
#        209968
#        223312
#        237162
#        253208
#        266499
#        281446
#        293547
#        307962
#        319354
#
# Disc length: 4423 seconds
#
# Revision: 0
# Processed by: cddbd v1.5.2PL0 Copyright (c) Steve Scherf et al.
# Submitted via: ExactAudioCopy v1.3
#
DISCID=78114519
DTITLE=John Lee Hooker - The very best of John Lee Hooker - CD 2
DYEAR=2016
DGENRE=Blues
TTITLE0=Boogie chillen
TTITLE1=Crawlin' kingsnake
TTITLE2=Burnin' hell
TTITLE3=Highway blues
TTITLE4=Whistlin' and moanin' blues
TTITLE5=Hoogie boogie
TTITLE6=Do the boogie
TTITLE7=Goin' home blues
TTITLE8=Landing blues
TTITLE9=Twister blues
TTITLE10=Hastings street boogie
TTITLE11=Miss Eloise
TTITLE12=Graveyard blues
TTITLE13=Sally Mae
TTITLE14=Miss Rosie Mae
TTITLE15=Hobo blues
TTITLE16=Build myself a cave
TTITLE17=Alberta
TTITLE18=Low down midnight boogie
TTITLE19=Momma Poppa Boogie
TTITLE20=Shady grove blues
TTITLE21=Walkin' the boogie
TTITLE22=Sugar Mama
TTITLE23=Queen bee
TTITLE24=Whiskey and wimmen
EXTD=
EXTT0=
EXTT1=
EXTT2=
EXTT3=
EXTT4=
EXTT5=
EXTT6=
EXTT7=
EXTT8=
EXTT9=
EXTT10=
EXTT11=
EXTT12=
EXTT13=
EXTT14=
EXTT15=
EXTT16=
EXTT17=
EXTT18=
EXTT19=
EXTT20=
EXTT21=
EXTT22=
EXTT23=
EXTT24=
PLAYORDER=
